<?xml version="1.0" encoding="UTF-8" standalone="no"?>
<!-- Created with Inkscape (http://www.inkscape.org/) -->

<svg
   width="28.97522mm"
   height="11.90625mm"
   viewBox="0 0 28.97522 11.90625"
   version="1.1"
   id="svg314"
   xmlns:inkscape="http://www.inkscape.org/namespaces/inkscape"
   xmlns:sodipodi="http://sodipodi.sourceforge.net/DTD/sodipodi-0.dtd"
   xmlns="http://www.w3.org/2000/svg"
   xmlns:svg="http://www.w3.org/2000/svg">
  <sodipodi:namedview
     id="namedview316"
     pagecolor="#ffffff"
     bordercolor="#666666"
     borderopacity="1.0"
     inkscape:showpageshadow="2"
     inkscape:pageopacity="0.0"
     inkscape:pagecheckerboard="0"
     inkscape:deskcolor="#d1d1d1"
     inkscape:document-units="mm"
     showgrid="false"
     inkscape:lockguides="true" />
  <defs
     id="defs311" />
  <g
     inkscape:label="Capa 1"
     inkscape:groupmode="layer"
     id="layer1"
     transform="translate(-122.48014,-139.53074)">
    <g
       fill="#d22630"
       fill-rule="nonzero"
       stroke="none"
       stroke-width="1"
       stroke-linecap="butt"
       stroke-linejoin="miter"
       stroke-miterlimit="10"
       stroke-dasharray="none"
       stroke-dashoffset="0"
       font-family="none"
       font-weight="none"
       font-size="none"
       text-anchor="none"
       style="mix-blend-mode:normal"
       id="g16"
       transform="matrix(0.0761,0,0,0.0761,116.04024,127.60037)"
       inkscape:export-filename="xc.svg"
       inkscape:export-xdpi="96"
       inkscape:export-ydpi="96">
      <g
         data-paper-data="{&quot;isGlobalGroup&quot;:true,&quot;bounds&quot;:{&quot;x&quot;:84.62405007548574,&quot;y&quot;:156.77234593369303,&quot;width&quot;:380.7518998490284,&quot;height&quot;:156.45530813261394}}"
         id="g14">
        <g
           data-paper-data="{&quot;isPrimaryText&quot;:true}"
           id="g12">
          <path
             d="m 327.42821,223.40959 c -2.76934,-22.15472 -21.46238,-38.77076 -43.79019,-38.77076 -19.55846,0 -34.61675,12.28895 -40.67468,27.00106 -4.67326,11.25044 -4.84634,24.92406 0.51925,36.00142 6.92335,14.36595 22.50089,25.61639 42.40552,25.61639 8.82727,0 17.30837,-2.25009 24.75098,-6.57718 5.53868,-3.28859 7.4426,-10.55811 4.15401,-16.26987 -3.28859,-5.53868 -10.55811,-7.61568 -16.09679,-4.15401 -11.07736,6.05793 -25.44331,4.32709 -33.05899,-7.26952 h 46.04028 c 9.86577,0 16.78912,-5.19251 15.75062,-15.57754 z m -61.61781,-4.15401 c 1.55775,-6.57718 9.00035,-12.8082 17.65454,-12.8082 8.82727,0 16.09679,6.23101 17.65454,12.8082 z"
             data-paper-data="{&quot;glyphName&quot;:&quot;e&quot;,&quot;glyphIndex&quot;:1,&quot;word&quot;:1}"
             id="path2" />
          <path
             d="m 352.52535,271.87303 c -7.61568,0 -13.8467,-6.23101 -13.8467,-13.8467 v -87.40729 c 0,-7.61568 6.23101,-13.8467 13.8467,-13.8467 7.61568,0 13.8467,6.23101 13.8467,13.8467 v 87.40729 c 0,7.61568 -6.23101,13.8467 -13.8467,13.8467 z"
             data-paper-data="{&quot;glyphName&quot;:&quot;l&quot;,&quot;glyphIndex&quot;:2,&quot;word&quot;:1}"
             id="path4" />
          <path
             d="m 421.06651,184.63883 c -24.40481,0 -44.30944,19.90463 -44.30944,44.30944 0,24.40481 19.90463,44.30944 44.30944,44.30944 24.40481,0 44.30944,-19.90463 44.30944,-44.30944 0,-24.40481 -19.90463,-44.30944 -44.30944,-44.30944 z m 0,27.52031 c 9.34652,0 16.78912,7.4426 16.78912,16.78912 0,9.34652 -7.4426,16.78912 -16.78912,16.78912 -9.34652,0 -16.78912,-7.4426 -16.78912,-16.78912 0,-9.34652 7.4426,-16.78912 16.78912,-16.78912 z"
             data-paper-data="{&quot;glyphName&quot;:&quot;o&quot;,&quot;glyphIndex&quot;:3,&quot;lastGlyphOfWord&quot;:true,&quot;word&quot;:1}"
             id="path6" />
          <g
             data-paper-data="{&quot;initialText&quot;:&quot;Y&quot;,&quot;fillRule&quot;:&quot;nonzero&quot;,&quot;selectedEffects&quot;:{&quot;container&quot;:&quot;circle_simple_filled&quot;,&quot;transformation&quot;:&quot;&quot;,&quot;pattern&quot;:&quot;&quot;},&quot;blockLetter&quot;:&quot;O&quot;,&quot;blockLetterId&quot;:0,&quot;relativeBoundsIconToContainer&quot;:{&quot;top&quot;:0.026749953477251794,&quot;left&quot;:-0.0004560147219133249},&quot;widthRatioIconToContainer&quot;:0.5948396558378529,&quot;heightRatioIconToContainer&quot;:0.8293108827011639,&quot;bounds&quot;:{&quot;x&quot;:84.62405007548574,&quot;y&quot;:168.6971378925454,&quot;width&quot;:144.53051617376158,&quot;height&quot;:144.53051617376155},&quot;isIcon&quot;:&quot;true&quot;,&quot;iconType&quot;:&quot;initial&quot;,&quot;iconStyle&quot;:&quot;icon-in-text&quot;,&quot;rawInitialId&quot;:267,&quot;line&quot;:1,&quot;iconInPrimaryText&quot;:true,&quot;suitableAsStandaloneIcon&quot;:true}"
             id="g10">
            <path
               d="m 84.62405,240.9624 c 0,-39.911 32.35426,-72.26526 72.26526,-72.26526 39.911,0 72.26526,32.35426 72.26526,72.26526 0,39.911 -32.35426,72.26526 -72.26526,72.26526 -39.911,0 -72.26526,-32.35426 -72.26526,-72.26526 z m 109.75754,-53.71577 c -5.99718,-4.05215 -13.93939,-2.75546 -17.99154,3.07963 l -19.6124,28.04087 -19.6124,-28.04087 c -4.05215,-5.83509 -11.99436,-7.13178 -17.82946,-3.07963 -5.83509,4.21424 -7.29387,12.15645 -3.07963,17.99154 l 27.7167,39.71106 v 47.00492 c 0,6.9697 5.67301,12.80479 12.80479,12.80479 7.13178,0 12.96687,-5.83509 12.96687,-12.80479 v -47.00492 l 27.7167,-39.71106 c 4.05215,-5.83509 2.75546,-13.77731 -3.07963,-17.99154 z"
               data-paper-data="{&quot;isPathIcon&quot;:true}"
               id="path8" />
          </g>
        </g>
      </g>
    </g>
  </g>
</svg>
