<?xml version="1.0" encoding="UTF-8" standalone="no"?>
<!-- Created with Inkscape (http://www.inkscape.org/) -->

<svg
   width="53.97646mm"
   height="13.229167mm"
   viewBox="0 0 53.97646 13.229167"
   version="1.1"
   id="svg572"
   xmlns="http://www.w3.org/2000/svg"
   xmlns:svg="http://www.w3.org/2000/svg">
  <defs
     id="defs569" />
  <g
     id="layer1"
     transform="translate(-98.805585,-103.22459)">
    <g
       id="g417"
       transform="matrix(0.18203521,0,0,0.18203521,86.56925,59.599832)"
       style="fill:#000000">
      <g
         id="g400"
         style="fill:#000000">
        <g
           data-paper-data="{&quot;isSecondaryText&quot;:true}"
           fill-rule="nonzero"
           id="g12"
           transform="translate(-59.522103,-42.676225)"
           style="font-family:none;mix-blend-mode:normal;fill:#000000;stroke:none;stroke-width:1;stroke-linecap:butt;stroke-linejoin:miter;stroke-miterlimit:10;stroke-dasharray:none;stroke-dashoffset:0">
          <path
             d="m 206.91572,341.50991 c -0.25389,0 -0.44008,0.20311 -0.44008,0.457 v 5.61946 h -8.68308 v -5.61946 c 0,-0.25389 -0.20311,-0.457 -0.44008,-0.457 -0.25389,0 -0.457,0.20311 -0.457,0.457 v 12.35604 c 0,0.25389 0.20311,0.457 0.457,0.457 0.23697,0 0.44008,-0.20311 0.44008,-0.457 v -5.8395 h 8.68308 v 5.8395 c 0,0.25389 0.18619,0.457 0.44008,0.457 0.25389,0 0.457,-0.20311 0.457,-0.457 v -12.35604 c 0,-0.25389 -0.20311,-0.457 -0.457,-0.457 z"
             data-paper-data="{&quot;glyphName&quot;:&quot;H&quot;,&quot;glyphIndex&quot;:0,&quot;firstGlyphOfWord&quot;:true,&quot;word&quot;:1}"
             id="path2"
             style="fill:#000000" />
          <path
             d="m 238.54422,355 c -0.94786,0 -1.86187,-0.18619 -2.7251,-0.55856 -0.82938,-0.33852 -1.57413,-0.8463 -2.21732,-1.4895 -0.64319,-0.64319 -1.13405,-1.37101 -1.4895,-2.20039 -0.37237,-0.8463 -0.55856,-1.74339 -0.55856,-2.67432 0,-0.91401 0.18619,-1.82802 0.55856,-2.67432 0.35545,-0.81245 0.86323,-1.5572 1.50642,-2.18347 0.66012,-0.64319 1.40487,-1.13405 2.23424,-1.4895 0.88016,-0.37237 1.79417,-0.54163 2.7251,-0.54163 1.86187,0 3.58833,0.7109 4.87471,2.03113 0.62627,0.64319 1.11712,1.38794 1.45564,2.20039 0.33852,0.8463 0.52471,1.74339 0.52471,2.67432 0,0.91401 -0.18619,1.81109 -0.54163,2.6574 -0.33852,0.82938 -0.82938,1.57413 -1.45564,2.20039 C 242.13254,354.27217 240.40608,355 238.54421,355 Z m 0.0339,-12.9146 c -0.81245,0 -1.60798,0.15233 -2.36965,0.47393 -0.72782,0.30467 -1.38794,0.74475 -1.9465,1.30331 -0.55856,0.54163 -0.99864,1.18483 -1.32023,1.89572 -0.3216,0.74475 -0.47393,1.52335 -0.47393,2.31887 0,0.79553 0.15233,1.57413 0.47393,2.31887 0.30467,0.7109 0.74475,1.35409 1.30331,1.91265 1.15097,1.15097 2.67432,1.79417 4.29923,1.79417 1.60798,0 3.1144,-0.64319 4.24845,-1.77724 0.54163,-0.55856 0.96479,-1.20175 1.26946,-1.91265 0.30467,-0.74475 0.457,-1.52335 0.457,-2.31887 0,-0.81245 -0.15233,-1.59105 -0.457,-2.31887 -0.28774,-0.72782 -0.7109,-1.37101 -1.25253,-1.91265 -1.11712,-1.15097 -2.60662,-1.77724 -4.23152,-1.77724 z"
             data-paper-data="{&quot;glyphName&quot;:&quot;O&quot;,&quot;glyphIndex&quot;:1,&quot;word&quot;:1}"
             id="path4"
             style="fill:#000000" />
          <path
             d="m 277.3279,354.96615 c -0.93093,0 -1.84494,-0.18619 -2.69125,-0.54163 -0.82938,-0.35545 -1.57413,-0.8463 -2.20039,-1.4895 -0.64319,-0.62627 -1.13405,-1.37101 -1.4895,-2.18347 -0.35545,-0.8463 -0.54163,-1.72646 -0.54163,-2.6574 0,-0.91401 0.18619,-1.79417 0.55856,-2.64047 0.33852,-0.81245 0.8463,-1.54027 1.4895,-2.18347 0.64319,-0.62627 1.38794,-1.11712 2.21732,-1.47257 0.86323,-0.35545 1.76031,-0.54163 2.70817,-0.54163 1.40487,0 2.75895,0.42315 3.90993,1.2356 0.20311,0.15233 0.25389,0.42315 0.10156,0.62627 -0.13541,0.20311 -0.42315,0.25389 -0.62627,0.11848 -0.98171,-0.7109 -2.16654,-1.08327 -3.38522,-1.08327 -0.82938,0 -1.60798,0.16926 -2.36965,0.47393 -0.7109,0.30467 -1.37101,0.74475 -1.92957,1.28638 -0.55856,0.55856 -0.99864,1.18483 -1.30331,1.89572 -0.3216,0.72782 -0.47393,1.50642 -0.47393,2.28502 0,0.79553 0.15233,1.57413 0.47393,2.30195 0.30467,0.7109 0.72782,1.35409 1.28638,1.91265 1.15097,1.13405 2.6574,1.76031 4.26537,1.76031 0.86323,0 1.67568,-0.16926 2.45428,-0.52471 0.67704,-0.30467 1.28638,-0.74475 1.81109,-1.28638 v -3.92685 c 0,-0.25389 0.20311,-0.457 0.457,-0.457 0.23697,0 0.44008,0.20311 0.44008,0.457 v 4.09611 c 0,0.11848 -0.0338,0.22004 -0.11848,0.30467 -0.62627,0.69397 -1.37101,1.25253 -2.21732,1.6249 -0.89708,0.40623 -1.84494,0.60934 -2.82666,0.60934 z"
             data-paper-data="{&quot;glyphName&quot;:&quot;G&quot;,&quot;glyphIndex&quot;:2,&quot;word&quot;:1}"
             id="path6"
             style="fill:#000000" />
          <path
             d="m 307.45397,354.77996 c -0.10156,0 -0.18619,-0.0339 -0.27082,-0.0846 -0.16926,-0.13541 -0.23697,-0.37237 -0.13541,-0.55856 l 6.02569,-12.42375 c 0.0846,-0.15233 0.23697,-0.25389 0.40623,-0.25389 0.16926,0 0.33852,0.10156 0.40623,0.25389 l 6.05954,12.38989 c 0.11848,0.22004 0.0169,0.49086 -0.20311,0.60934 -0.22004,0.10156 -0.49086,0.0169 -0.60934,-0.20311 l -1.50642,-3.09747 c -1.04942,-0.3216 -2.20039,-0.3893 -3.40214,-0.16926 -1.04942,0.18619 -2.13269,0.57549 -3.23288,1.1679 -1.91265,0.99864 -3.21596,2.23424 -3.23288,2.25117 -0.0846,0.0846 -0.20311,0.11848 -0.30467,0.11848 z m 6.02568,-11.83133 -4.75623,9.78328 c 0.50778,-0.35545 1.13405,-0.74475 1.82802,-1.11712 1.18483,-0.62627 2.36965,-1.04942 3.48677,-1.25253 1.06634,-0.20311 2.09883,-0.20311 3.06362,-0.0169 z"
             data-paper-data="{&quot;glyphName&quot;:&quot;A&quot;,&quot;glyphIndex&quot;:3,&quot;word&quot;:1}"
             id="path8"
             style="fill:#000000" />
          <path
             d="m 353.10452,354.2891 c 0,-0.25389 -0.18619,-0.457 -0.44008,-0.457 h -0.0677 c -0.0339,0.0169 -0.74475,0.0846 -1.38794,-1.01557 -0.88016,-1.50642 -1.8788,-2.4035 -2.70817,-2.96207 0.81245,-0.13541 1.4895,-0.37237 2.03113,-0.69397 0.54163,-0.33852 0.96479,-0.7786 1.26946,-1.30331 0.30467,-0.57549 0.47393,-1.26946 0.47393,-2.04806 0,-1.37101 -0.3893,-2.45428 -1.1679,-3.21596 -1.15097,-1.13405 -2.69125,-1.15097 -2.7928,-1.15097 h -5.33172 c -0.27082,0 -0.50778,0.22004 -0.50778,0.49086 v 12.38989 c 0,0.25389 0.20311,0.457 0.457,0.457 0.25389,0 0.457,-0.20311 0.457,-0.457 V 342.3562 h 4.92549 c 0.0169,0 1.25253,0 2.14961,0.88016 0.59241,0.59241 0.89708,1.45564 0.89708,2.57277 0,1.18483 -0.42315,2.03113 -1.30331,2.57277 -0.7109,0.44008 -1.74339,0.67704 -3.0467,0.7109 -0.23697,0 -0.44008,0.16926 -0.47393,0.40623 -0.0339,0.23697 0.10156,0.47393 0.33852,0.54163 0.27082,0.10156 0.82938,0.33852 1.4895,0.82938 0.79553,0.60934 1.4895,1.40487 2.06498,2.4035 0.49086,0.8463 1.06634,1.20175 1.45564,1.33716 0.457,0.16926 0.79553,0.13541 0.8463,0.11848 0.22004,-0.0338 0.37237,-0.22004 0.37237,-0.44008 z"
             data-paper-data="{&quot;glyphName&quot;:&quot;R&quot;,&quot;glyphIndex&quot;:4,&quot;lastGlyphOfWord&quot;:true,&quot;word&quot;:1}"
             id="path10"
             style="fill:#000000" />
        </g>
        <g
           data-paper-data="{&quot;isPrimaryText&quot;:true}"
           fill-rule="nonzero"
           id="g28"
           transform="translate(-59.522103,-42.676225)"
           style="font-family:none;mix-blend-mode:normal;fill:#000000;stroke:none;stroke-width:1;stroke-linecap:butt;stroke-linejoin:miter;stroke-miterlimit:10;stroke-dasharray:none;stroke-dashoffset:0">
          <path
             d="m 129.604,330.66778 h 14.53732 c 1.58097,0 2.86229,-1.28132 2.86229,-2.86229 0,-1.58097 -1.28132,-2.86229 -2.86229,-2.86229 h -11.67503 v -17.95139 h 7.99765 c 1.58097,0 2.86229,-1.28132 2.86229,-2.86229 0,-1.58097 -1.28132,-2.86229 -2.86229,-2.86229 h -7.99765 v -13.21575 h 11.67503 c 1.58097,0 2.86229,-1.28132 2.86229,-2.86229 0,-1.58097 -1.28132,-2.86229 -2.86229,-2.86229 H 129.604 c -1.58097,0 -2.86229,1.28132 -2.86229,2.86229 v 42.61631 c 0,1.58097 1.28132,2.86229 2.86229,2.86229 z"
             data-paper-data="{&quot;glyphName&quot;:&quot;E&quot;,&quot;glyphIndex&quot;:0,&quot;firstGlyphOfWord&quot;:true,&quot;word&quot;:1}"
             id="path14"
             style="fill:#000000" />
          <path
             d="m 175.64644,330.66778 h 14.53732 c 1.58097,0 2.86229,-1.28132 2.86229,-2.86229 0,-1.58097 -1.28132,-2.86229 -2.86229,-2.86229 h -11.67503 v -39.75402 c 0,-1.58097 -1.28132,-2.86229 -2.86229,-2.86229 -1.58097,0 -2.86229,1.28132 -2.86229,2.86229 v 42.61631 c 0,1.58097 1.28132,2.86229 2.86229,2.86229 z"
             data-paper-data="{&quot;glyphName&quot;:&quot;L&quot;,&quot;glyphIndex&quot;:1,&quot;word&quot;:1}"
             id="path16"
             style="fill:#000000" />
          <path
             d="m 221.68889,330.66778 h 14.53732 c 1.58097,0 2.86229,-1.28132 2.86229,-2.86229 0,-1.58097 -1.28132,-2.86229 -2.86229,-2.86229 h -11.67503 v -17.95139 h 7.99765 c 1.58097,0 2.86229,-1.28132 2.86229,-2.86229 0,-1.58097 -1.28132,-2.86229 -2.86229,-2.86229 h -7.99765 v -13.21575 h 11.67503 c 1.58097,0 2.86229,-1.28132 2.86229,-2.86229 0,-1.58097 -1.28132,-2.86229 -2.86229,-2.86229 h -14.53732 c -1.58097,0 -2.86229,1.28132 -2.86229,2.86229 v 42.61631 c 0,1.58097 1.28132,2.86229 2.86229,2.86229 z"
             data-paper-data="{&quot;glyphName&quot;:&quot;E&quot;,&quot;glyphIndex&quot;:2,&quot;word&quot;:1}"
             id="path18"
             style="fill:#000000" />
          <path
             d="m 275,330.66778 c 5.58595,0 10.13095,-4.54445 10.13095,-10.1304 v -1.02193 c 0,-1.58097 -1.28132,-2.86229 -2.86229,-2.86229 -1.58097,0 -2.86229,1.28132 -2.86229,2.86229 v 1.02193 c 0,2.4296 -1.97677,4.40581 -4.40637,4.40581 -2.4296,0 -4.40637,-1.97621 -4.40637,-4.40581 v -28.08011 c 0,-2.4296 1.97677,-4.40581 4.40637,-4.40581 2.4296,0 4.40637,1.97621 4.40637,4.40581 v 1.02808 c 0,1.58097 1.28132,2.86229 2.86229,2.86229 1.58097,0 2.86229,-1.28132 2.86229,-2.86229 v -1.02808 c 0,-5.58595 -4.54501,-10.1304 -10.13095,-10.1304 -5.58595,0 -10.13095,4.54445 -10.13095,10.1304 v 28.08011 c 0,5.58595 4.54501,10.1304 10.13095,10.1304 z"
             data-paper-data="{&quot;glyphName&quot;:&quot;C&quot;,&quot;glyphIndex&quot;:3,&quot;word&quot;:1}"
             id="path20"
             style="fill:#000000" />
          <path
             d="m 318.18015,288.05091 v 39.75458 c 0,1.58097 1.28132,2.86229 2.86229,2.86229 1.58097,0 2.86229,-1.28132 2.86229,-2.86229 v -39.75458 h 4.40637 c 1.58097,0 2.86229,-1.28132 2.86229,-2.86229 0,-1.58097 -1.28132,-2.86229 -2.86229,-2.86229 h -14.53732 c -1.58097,0 -2.86229,1.28132 -2.86229,2.86229 0,1.58097 1.28132,2.86229 2.86229,2.86229 z"
             data-paper-data="{&quot;glyphName&quot;:&quot;T&quot;,&quot;glyphIndex&quot;:4,&quot;word&quot;:1}"
             id="path22"
             style="fill:#000000" />
          <path
             d="m 362.67853,288.05147 h 4.80441 c 2.20933,0 4.00721,1.79788 4.00721,4.00721 v 5.82633 c 0,1.86496 -1.51724,3.3822 -3.3822,3.3822 -0.0716,0 -0.13871,0.0159 -0.20901,0.021 -0.13899,-0.006 -0.27561,-0.021 -0.416,-0.021 h -4.80441 v -13.21575 z m 4.8044,-5.72459 h -7.6667 c -1.58097,0 -2.86229,1.28132 -2.86229,2.86229 v 42.61631 c 0,1.58097 1.28132,2.86229 2.86229,2.86229 1.58097,0 2.86229,-1.28132 2.86229,-2.86229 V 306.9918 h 4.80441 c 2.20933,0 4.00721,1.79788 4.00721,4.00721 v 16.80647 c 0,1.58097 1.28132,2.86229 2.86229,2.86229 1.58097,0 2.86229,-1.28132 2.86229,-2.86229 v -16.80647 c 0,-2.58557 -1.02032,-4.9325 -2.67096,-6.67712 1.64931,-1.64903 2.67096,-3.92594 2.67096,-6.43688 v -5.82633 c 0,-5.36624 -4.36612,-9.7318 -9.7318,-9.7318 z"
             data-paper-data="{&quot;glyphName&quot;:&quot;R&quot;,&quot;glyphIndex&quot;:5,&quot;word&quot;:1}"
             id="path24"
             style="fill:#000000" />
          <path
             d="m 408.72097,292.41759 c 0,-2.40723 1.95888,-4.36612 4.44662,-4.36612 2.40723,0 4.36612,1.95888 4.36612,4.36612 v 28.15949 c 0,2.40723 -1.95888,4.36612 -4.36612,4.36612 h -0.0805 c -2.40723,0 -4.36612,-1.95888 -4.36612,-4.36612 z m 4.36612,38.25019 h 0.0805 c 5.56358,0 10.0907,-4.52656 10.0907,-10.0907 v -28.15949 c 0,-5.56414 -4.52712,-10.0907 -10.17121,-10.0907 -5.56358,0 -10.0907,4.52656 -10.0907,10.0907 v 28.15949 c 0,5.56414 4.52712,10.0907 10.0907,10.0907 z"
             data-paper-data="{&quot;glyphName&quot;:&quot;O&quot;,&quot;glyphIndex&quot;:6,&quot;lastGlyphOfWord&quot;:true,&quot;word&quot;:1}"
             id="path26"
             style="fill:#000000" />
        </g>
      </g>
    </g>
  </g>
</svg>
